<svg width="60" height="60" viewBox="0 0 60 60" fill="none" xmlns="http://www.w3.org/2000/svg">
<path d="M48.3125 19.125V13.75H42.9375V10H48.3125V4.5625H52.0625V10H57.5V13.75H52.0625V19.125H48.3125ZM5.875 55C4.875 55 4 54.625 3.25 53.875C2.5 53.125 2.125 52.25 2.125 51.25V19.1875C2.125 18.2292 2.5 17.3646 3.25 16.5938C4 15.8229 4.875 15.4375 5.875 15.4375H15.0625L19.625 10H37.125V13.75H21.375L16.8125 19.1875H5.875V51.25H48.375V25H52.125V51.25C52.125 52.25 51.7396 53.125 50.9688 53.875C50.1979 54.625 49.3333 55 48.375 55H5.875ZM27.125 45.875C30.125 45.875 32.6458 44.8542 34.6875 42.8125C36.7292 40.7708 37.75 38.2292 37.75 35.1875C37.75 32.1875 36.7292 29.6771 34.6875 27.6562C32.6458 25.6354 30.125 24.625 27.125 24.625C24.0833 24.625 21.5521 25.6354 19.5312 27.6562C17.5104 29.6771 16.5 32.1875 16.5 35.1875C16.5 38.2292 17.5104 40.7708 19.5312 42.8125C21.5521 44.8542 24.0833 45.875 27.125 45.875ZM27.125 42.125C25.125 42.125 23.4792 41.4688 22.1875 40.1562C20.8958 38.8438 20.25 37.1875 20.25 35.1875C20.25 33.2292 20.8958 31.6042 22.1875 30.3125C23.4792 29.0208 25.125 28.375 27.125 28.375C29.0833 28.375 30.7188 29.0208 32.0312 30.3125C33.3437 31.6042 34 33.2292 34 35.1875C34 37.1875 33.3437 38.8438 32.0312 40.1562C30.7188 41.4688 29.0833 42.125 27.125 42.125Z" fill="black"/>
</svg>
